Full Credits To Feel Free :)

 ######## ######## ######## ##          ######## ########  ######## ######## 
 ##       ##       ##       ##          ##       ##     ## ##       ##       
 ##       ##       ##       ##          ##       ##     ## ##       ##       
 ######   ######   ######   ##          ######   ########  ######   ######   
 ##       ##       ##       ##          ##       ##   ##   ##       ##       
 ##       ##       ##       ##          ##       ##    ##  ##       ##       
 ##       ######## ######## ########    ##       ##     ## ######## ########

Genre:Comedy | Drama | Romance 
 Language:English
 IMDb: 
http://www.imdb.com/title/tt1570728/
 Source:UnKnOwN/CLASSiFiED Thanks!

 Format : MPEG-4
 Format profile : Base Media
 Codec ID : isom
 File size : 988 MiB
 Duration : 1h 52mn
 Overall bit rate : 1 232 Kbps

 Video
 ID : 1
 Format : AVC
 Format/Info : Advanced Video Codec
 Format profile : High@L4.1
 Format settings, CABAC : Yes
 Format settings, ReFrames : 3 frames
 Codec ID : avc1
 Codec ID/Info : Advanced Video Coding
 Duration : 1h 52mn
 Bit rate mode : Variable
 Bit rate : 1 000 Kbps
 Maximum bit rate : 4 953 Kbps
 Width : 640 pixels
 Height : 304 pixels
 Display aspect ratio : 2.2:1
 Frame rate mode : Constant
 Frame rate : 29.970 fps
 Color space : YUV
 Chroma subsampling : 4:2:0
 Bit depth : 8 bits
 Scan type : Progressive
 Bits/(Pixel*Frame) : 0.171
 Stream size : 805 MiB (82%)
 Writing library : x264

 Audio
 ID : 2
 Format : AAC
 Format/Info : Advanced Audio Codec
 Format version : Version 4
 Format profile : LC
 Format settings, SBR : No
 Codec ID : 40
 Duration : 1h 52mn
 Bit rate mode : Variable
 Bit rate : 224 Kbps
 Maximum bit rate : 265 Kbps
 Channel(s) : 2 channels
 Channel positions : Front: L R
 Sampling rate : 44.1 KHz
 Stream size : 180 MiB (18%)


 Plot:
 A father's life unravels while he deals with a marital crisis and tries to manage his relationship with his children


Greets:

 INK,CRYS,IMAGINE,LKRG,FXG,3Li,FLAWL3SS,TA,iLLUSiON,ViSiON,DTRG 
 SAFCuk009,LU,TheFalcon007,MYSTiC,PrisM,Noir,WBZ,LAP,Rx,Kingdom,SAFCuk009+Fabreezy,
 HDLiTE,TWiZTED,ExtraTorrentRG.ELEKTRI4KA,MAGNAT,CM8
 And to all the other p2p grps past and present






==================================                                        
http://thepiratebay.org/user/hiest
==================================






Screenshots:
 
http://www.pix2links.com/images/32434745945402036082.png
 
http://www.pix2links.com/images/18803322758232900185.png
 
http://www.pix2links.com/images/04087949298456665757.png
 
http://www.pix2links.com/images/32631051730801206386.png

Full Credits To Feel Free :)

 ######## ######## ######## ##          ######## ########  ######## ######## 
 ##       ##       ##       ##          ##       ##     ## ##       ##       
 ##       ##       ##       ##          ##       ##     ## ##       ##       
 ######   ######   ######   ##          ######   ########  ######   ######   
 ##       ##       ##       ##          ##       ##   ##   ##       ##       
 ##       ##       ##       ##          ##       ##    ##  ##       ##       
 ##       ######## ######## ########    ##       ##     ## ######## ########